<svg xmlns="http://www.w3.org/2000/svg" viewBox="0 0 38.84 61.21"><title>idea</title><g id="Calque_2" data-name="Calque 2"><g id="Calque_1-2" data-name="Calque 1"><path d="M38.84,19.42A19.42,19.42,0,0,0,0,19.42c0,5.42,3,10.77,5.36,15.07,1.57,2.82,2.93,5.26,3.06,6.95v8.77a11,11,0,1,0,22,0V41.48c.13-1.73,1.49-4.17,3.06-7C35.87,30.19,38.84,24.84,38.84,19.42ZM9.42,44.92h20v4h-20Zm10,15.29a10,10,0,0,1-8.82-5.29H28.24A10,10,0,0,1,19.42,60.21Zm9.28-6.29H10.14a9.84,9.84,0,0,1-.72-3.71v-.29h20v.29A9.84,9.84,0,0,1,28.7,53.92Zm.72-12.48v2.48h-20V41.4c-.15-1.94-1.56-4.47-3.18-7.4C3.91,29.81,1,24.61,1,19.42a18.42,18.42,0,1,1,36.84,0c0,5.17-2.91,10.39-5.24,14.58C31,36.93,29.57,39.46,29.42,41.44Z"/></g></g></svg>