<?xml version="1.0" encoding="utf-8"?>
<!-- Generator: Adobe Illustrator 23.0.1, SVG Export Plug-In . SVG Version: 6.00 Build 0)  -->
<svg version="1.1" id="Calque_1" xmlns="http://www.w3.org/2000/svg" xmlns:xlink="http://www.w3.org/1999/xlink" x="0px" y="0px"
	 viewBox="0 0 341.54 104" style="enable-background:new 0 0 341.54 104;" xml:space="preserve">
<style type="text/css">
	.st0{fill:#FFFFFF;}
</style>
<g>
	<g>
		<g>
			<g>
				<g>
					<g>
						<polyline class="st0" points="47.51,50.71 57.3,46.31 58.76,49.85 48.26,52.35 47.51,50.71 						"/>
						<path class="st0" d="M20.61,55.45c-0.4-2.41-3.17-4.24-6.34-4.24c-5.73,0-7.89,4.07-7.89,8.3c0,4.03,2.15,8.1,7.89,8.1
							c3.9,0,6.1-2.24,6.59-5.43h6.18c-0.65,6.03-5.65,9.89-12.77,9.89C5.29,72.09,0,66.5,0,59.52c0-7.18,5.29-12.78,14.27-12.78
							c6.38,0,11.75,3.12,12.52,8.71H20.61"/>
						<path class="st0" d="M28.62,54h5.49v3.25h0.08c1.06-2.2,3.9-3.72,6.71-3.72c0.4,0,0.89,0.06,1.26,0.17v4.47
							c-0.53-0.1-1.38-0.17-2.07-0.17c-4.23,0-5.69,2.54-5.69,5.62v7.89h-5.77V54"/>
						<path class="st0" d="M47.55,63.92c0.17,3.04,1.96,4.44,5.17,4.44c2.31,0,4.18-1.19,4.55-2.27h5.08
							c-1.62,4.13-5.08,5.89-9.84,5.89c-6.63,0-10.73-3.79-10.73-9.21c0-5.25,4.35-9.25,10.73-9.25c7.16,0,10.62,5.01,10.21,10.4
							L47.55,63.92 M56.95,60.87c-0.53-2.44-1.79-3.73-4.6-3.73c-3.66,0-4.71,2.38-4.8,3.73H56.95z"/>
						<path class="st0" d="M80.05,69.28h-0.08c-1.35,1.9-3.7,2.71-6.39,2.71c-6.34,0-9.43-4.54-9.43-9.38
							c0-4.71,3.13-9.08,9.31-9.08c2.48,0,4.92,0.88,6.26,2.6h-0.04h0.08v-8.81h5.77v24.19h-5.49v-2.23 M75.01,57.14
							c-3.78,0-5.08,2.71-5.08,5.59c0,2.74,1.51,5.63,5.08,5.63c3.82,0,4.96-2.78,4.96-5.66C79.97,59.86,78.76,57.14,75.01,57.14z"
							/>
						<path class="st0" d="M93.49,51.29h-5.77v-3.96h5.77V51.29z M87.71,54h5.78v17.51h-5.78V54z"/>
						<polyline class="st0" points="97.87,71.49 97.87,58.56 95.31,58.56 95.31,54 97.87,54 97.87,48.74 103.64,48.74 103.64,54 
							107.33,54 107.33,58.56 103.64,58.56 103.64,71.49 97.87,71.49 						"/>
						<path class="st0" d="M132.08,69.28h-0.09c-1.33,1.9-3.7,2.71-6.38,2.71c-6.34,0-9.43-4.54-9.43-9.38
							c0-4.71,3.13-9.08,9.31-9.08c2.48,0,4.92,0.88,6.26,2.6h-0.04h0.09v-8.81h5.77v24.19h-5.49V69.28 M127.04,57.14
							c-3.78,0-5.08,2.71-5.08,5.59c0,2.74,1.5,5.63,5.08,5.63c3.82,0,4.96-2.78,4.96-5.66C131.99,59.86,130.77,57.14,127.04,57.14z
							"/>
						<path class="st0" d="M159.47,71.51h-5.49v-2.44h-0.12c-1.47,1.96-3.99,2.91-6.43,2.91c-6.14,0-7.68-2.88-7.68-7.22V54h5.78
							v9.89c0,2.88,1.01,4.3,3.7,4.3c3.14,0,4.47-1.45,4.47-5.02V54h5.77L159.47,71.51"/>
						<polyline class="st0" points="171.26,47.32 177.6,47.32 189.72,63.55 189.8,63.55 189.8,47.32 195.78,47.32 195.78,71.51 
							189.4,71.51 177.31,55.32 177.24,55.32 177.24,71.51 171.26,71.51 171.26,47.32 						"/>
						<path class="st0" d="M208.1,53.53c6.63,0,10.9,3.65,10.9,9.25c0,5.56-4.27,9.21-10.9,9.21c-6.59,0-10.85-3.66-10.85-9.21
							C197.25,57.18,201.52,53.53,208.1,53.53 M208.1,68.36c3.95,0,5.12-2.81,5.12-5.59c0-2.81-1.18-5.63-5.12-5.63
							c-3.9,0-5.08,2.81-5.08,5.63C203.02,65.55,204.2,68.36,208.1,68.36z"/>
						<path class="st0" d="M220.3,54h5.49v3.25h0.08c1.06-2.2,3.9-3.72,6.71-3.72c0.41,0,0.9,0.06,1.26,0.17v4.47
							c-0.52-0.1-1.38-0.17-2.07-0.17c-4.23,0-5.69,2.54-5.69,5.62v7.89h-5.77L220.3,54"/>
						<path class="st0" d="M249.68,69.28h-0.08c-1.34,1.9-3.7,2.71-6.38,2.71c-6.34,0-9.43-4.54-9.43-9.38
							c0-4.71,3.13-9.08,9.31-9.08c2.48,0,4.91,0.88,6.26,2.6h-0.04h0.08v-8.81h5.78v24.19h-5.49L249.68,69.28 M244.64,57.14
							c-3.78,0-5.09,2.71-5.09,5.59c0,2.74,1.5,5.63,5.09,5.63c3.82,0,4.96-2.78,4.96-5.66C249.6,59.86,248.38,57.14,244.64,57.14z"
							/>
					</g>
				</g>
			</g>
		</g>
	</g>
</g>
<polygon class="st0" points="316.7,53.87 308.44,0 301.12,53.88 276.39,53.88 297.23,65.19 290.43,85.86 308.61,71.52 331.95,104 
	320.14,65.19 341.54,53.87 "/>
</svg>
