<svg xmlns="http://www.w3.org/2000/svg" viewBox="0 0 71.1 58.1"><title>Fichier 1</title><g id="Calque_2" data-name="Calque 2"><g id="Calque_1-2" data-name="Calque 1"><path d="M11.5,58.1a1.84,1.84,0,0,1-1.7-1.2,1.76,1.76,0,0,1,.7-2.1,44.84,44.84,0,0,0,7.8-8.1H6.6A6.59,6.59,0,0,1,0,40.1V6.6A6.59,6.59,0,0,1,6.6,0H64.5a6.59,6.59,0,0,1,6.6,6.6V40a6.59,6.59,0,0,1-6.6,6.6H36.1c0,.1-.1.1-.1.2-5.2,7.3-13.4,11.1-24.5,11.3ZM6.6,2.3A4.27,4.27,0,0,0,2.3,6.6V40a4.27,4.27,0,0,0,4.3,4.3H19.9a1.6,1.6,0,0,1,1.4.8,1.54,1.54,0,0,1-.1,1.6,52.85,52.85,0,0,1-8.1,9c14.3-.8,19.3-7.8,20.9-10.2a3.81,3.81,0,0,1,.5-.6,1.66,1.66,0,0,1,1.2-.5H64.5a4.27,4.27,0,0,0,4.3-4.3V6.6a4.27,4.27,0,0,0-4.3-4.3Z"/></g></g></svg>